<svg width="55" height="55" viewBox="0 0 55 55" fill="none" xmlns="http://www.w3.org/2000/svg">
<g clip-path="url(#clip0_164_3780)">
<path fill-rule="evenodd" clip-rule="evenodd" d="M37.2173 7.02241C37.5037 7.30879 37.968 7.30878 38.2544 7.02239L40.3455 4.93114C40.6319 4.64475 40.6319 4.18043 40.3455 3.89405C40.0591 3.60767 39.5948 3.60768 39.3084 3.89408L37.2173 5.98532C36.9309 6.27172 36.9309 6.73604 37.2173 7.02241Z" fill="#010101"/>
<path fill-rule="evenodd" clip-rule="evenodd" d="M8.29401 35.9462C8.58039 36.2326 9.04471 36.2326 9.3311 35.9462L11.4223 33.8549C11.7087 33.5685 11.7087 33.1042 11.4223 32.8178C11.136 32.5315 10.6716 32.5315 10.3853 32.8178L8.29401 34.9091C8.00762 35.1955 8.00762 35.6598 8.29401 35.9462Z" fill="#010101"/>
<path fill-rule="evenodd" clip-rule="evenodd" d="M10.4178 33.8874C17.9557 41.4254 30.0806 41.5801 37.8073 34.3518C38.1031 34.0751 38.1185 33.6111 37.8418 33.3153C37.5651 33.0195 37.1011 33.0041 36.8053 33.2808C29.6543 39.9705 18.4315 39.8271 11.4549 32.8503C4.4779 25.8734 4.33458 14.6503 11.0249 7.49925C11.3016 7.2035 11.2862 6.73943 10.9904 6.46273C10.6947 6.18603 10.2306 6.20148 9.95392 6.49723C2.72496 14.224 2.87959 26.3493 10.4178 33.8874C10.4178 33.8874 10.4178 33.8874 10.4178 33.8874Z" fill="#010101"/>
<path fill-rule="evenodd" clip-rule="evenodd" d="M39.3756 31.568C39.7051 31.8036 40.1631 31.7275 40.3987 31.398C45.9032 23.6996 45.2001 12.9305 38.2873 6.01784C31.3915 -0.878049 20.6581 -1.59459 12.9637 3.86617C12.6334 4.10058 12.5557 4.55835 12.7901 4.88863C13.0245 5.21891 13.4823 5.29664 13.8126 5.06224C20.9334 0.00849514 30.8686 0.673263 37.2502 7.05493C43.6475 13.4521 44.2998 23.4204 39.2056 30.545C38.97 30.8744 39.0462 31.3325 39.3756 31.568Z" fill="#010101"/>
<path d="M7.14641 34.7068L9.2837 34.8614C9.31024 34.8882 9.33687 34.9149 9.36357 34.9416C9.75358 35.3317 10.1561 35.7046 10.5702 36.0601L8.32647 35.9787L7.14641 34.7068Z" fill="#010101"/>
<path d="M24.562 41.1493C24.9195 41.1458 25.276 41.1333 25.6312 41.1118L25.1299 42.6037C24.9456 42.61 24.7609 42.6141 24.5761 42.6159C18.4406 42.6746 12.6589 40.3113 8.32647 35.9787L10.5702 36.0601C14.4601 39.3996 19.3726 41.199 24.562 41.1493Z" fill="#010101"/>
<path d="M24.1582 44.0631C24.3189 44.0644 24.4795 44.064 24.6399 44.062L24.1467 45.5297C17.3927 45.4768 11.0476 42.8203 6.26608 38.0389C5.79723 37.5699 5.34928 37.0857 4.92215 36.5878C4.17511 35.7168 4.24189 34.4228 5.04315 33.6214C5.9524 32.7125 7.42964 32.787 8.25839 33.7504C8.58546 34.1307 8.92731 34.5012 9.2837 34.8614L7.14641 34.7068C6.86442 34.379 6.37545 34.3634 6.08006 34.6587C5.81079 34.9281 5.79669 35.3546 6.0354 35.6329C6.43851 36.1028 6.8611 36.5596 7.30322 37.0019C11.8126 41.5111 17.7893 44.0132 24.1582 44.0631Z" fill="#010101"/>
<path d="M26.0085 41.0856L25.3766 42.5939C25.2944 42.5976 25.2122 42.6009 25.1299 42.6037L25.6312 41.1118C25.7572 41.1042 25.8829 41.0955 26.0085 41.0856Z" fill="#010101"/>
<path d="M42.2568 38.2191C37.4337 42.9492 30.9012 45.5826 24.1467 45.5297L24.7623 44.0602C30.9139 43.9537 36.8283 41.4887 41.2299 37.172C45.8937 32.5981 48.4638 26.4748 48.4638 19.9526C48.4638 13.7125 46.1111 7.83756 41.8234 3.33548L42.4388 1.86638C47.2688 6.6963 49.9304 13.1219 49.9304 19.9526C49.9304 26.8689 47.2018 33.3695 42.2568 38.2191Z" fill="#010101"/>
<path d="M36.927 37.0159L39.1746 37.0974C35.3337 40.415 30.4648 42.364 25.3766 42.5939L26.0085 41.0856C29.9628 40.7751 33.7495 39.3549 36.927 37.0159Z" fill="#010101"/>
<path d="M45.5487 20.1992C45.6062 15.1147 43.825 10.1775 40.5768 6.31104L41.2088 4.80248C44.9931 9.01501 47.0796 14.5287 47.0152 20.2158C46.9487 26.0994 44.6517 31.6283 40.528 35.8278C40.1175 36.2458 39.6923 36.6464 39.2534 37.029L37.1169 36.8745C37.9511 36.2459 38.742 35.5533 39.4815 34.8002C43.34 30.8708 45.4864 25.7042 45.5487 20.1992Z" fill="#010101"/>
<path d="M39.1746 37.0974L36.927 37.0159C36.9905 36.9691 37.0538 36.922 37.1169 36.8745L39.2534 37.029C39.2272 37.0519 39.2009 37.0747 39.1746 37.0974Z" fill="#010101"/>
<path d="M39.3594 4.98164C38.9684 4.58971 38.5648 4.21506 38.1497 3.85798L39.6009 3.18414C39.8716 3.43084 40.1373 3.68475 40.3977 3.94577C40.6761 4.22484 40.9465 4.51054 41.2088 4.80248L40.5768 6.31104C40.1914 5.85232 39.7854 5.40867 39.3594 4.98164Z" fill="#010101"/>
<path d="M40.9877 0.522324C41.4855 0.949307 41.9699 1.39732 42.4388 1.86638L41.0166 2.52676C40.6957 2.21976 40.3676 1.92271 40.0328 1.63557C39.7542 1.39673 39.3277 1.41109 39.0584 1.68043C38.763 1.9758 38.7789 2.46462 39.1062 2.7461C39.2729 2.88949 39.4378 3.03551 39.6009 3.18414L38.1497 3.85798C37.1859 3.02913 37.1128 1.55184 38.0214 0.643233C38.823 -0.158297 40.1168 -0.224571 40.9877 0.522324Z" fill="#010101"/>
<path d="M42.4388 1.86638L41.8234 3.33548C41.6848 3.18999 41.5442 3.04593 41.4016 2.90334C41.2745 2.77619 41.1462 2.65066 41.0166 2.52676L42.4388 1.86638Z" fill="#010101"/>
<path d="M33.9669 17.2669C33.3043 16.3722 32.263 15.8381 31.1511 15.8213C31.0872 15.8203 31.0233 15.8204 30.9595 15.8216L31.1734 14.3548C32.9999 14.6667 33.7962 15.4744 34.498 16.1705C35.1999 16.8667 36.4863 18.1622 37.8227 17.9863C37.5586 18.7 37.2149 19.3884 37.2149 19.3884C36.9664 19.3421 36.7223 19.2723 36.4863 19.1795C35.4963 18.7901 34.613 18.1397 33.9669 17.2669Z" fill="#010101"/>
<path fill-rule="evenodd" clip-rule="evenodd" d="M28.6312 39.1901C29.0305 39.1221 29.299 38.7433 29.231 38.344C29.2018 38.1725 29.2004 37.9987 29.2317 37.8258L29.2382 37.7898L29.4351 36.6983C29.5396 36.1198 29.8385 35.5943 30.2824 35.2091L30.4018 35.1055L30.7807 34.7766C31.3434 34.288 31.659 33.5733 31.6401 32.8278L31.6262 32.2809L31.5929 30.97C31.5539 29.4295 30.9144 27.9653 29.8106 26.8898L29.5131 26.5999C29.4768 26.5646 29.44 26.5298 29.4028 26.4957C28.9155 26.0498 28.3414 25.7081 27.716 25.4925L26.1133 24.94C25.3514 24.6772 24.7268 24.1201 24.379 23.3932C23.9866 22.573 23.986 21.6193 24.3775 20.7985C25.1013 19.2807 26.2062 17.9764 27.5843 17.0128L27.8332 16.8386C28.7524 16.1959 29.841 15.8426 30.9595 15.8216L31.1734 14.3548C29.6798 14.3322 28.2168 14.7808 26.9926 15.6368L26.7437 15.811C25.1578 16.9198 23.8866 18.4207 23.0536 20.1672C22.4715 21.3878 22.4723 22.8062 23.056 24.0262C23.5731 25.1073 24.5022 25.9358 25.6352 26.3265L27.238 26.8791C27.7069 27.0408 28.1344 27.3042 28.4895 27.6503L28.7871 27.9403C28.9115 28.0614 29.028 28.1892 29.1363 28.3227C29.7507 29.0799 30.1018 30.0228 30.1267 31.0071L30.1739 32.8651C30.1817 33.1723 30.0517 33.4673 29.8192 33.6691L29.3211 34.1014C28.6245 34.7059 28.1556 35.5303 27.9917 36.4378L27.7884 37.5652C27.7247 37.9176 27.7295 38.2633 27.7852 38.5902C27.8532 38.9895 28.2319 39.258 28.6312 39.1901ZM37.8227 17.9863C37.5586 18.7 37.2149 19.3884 37.2149 19.3884C37.3916 19.4213 37.5706 19.4423 37.7504 19.4512C37.8839 19.4577 38.1431 19.4667 38.3632 19.3988C40.0394 18.8819 40.6195 16.8478 39.599 15.4863C39.3077 15.0976 38.9803 14.6785 38.6672 14.3171C37.9 13.4314 36.8532 12.8356 35.7014 12.6256C35.6933 12.6241 35.6851 12.6228 35.677 12.6216L32.0568 12.0871C32.0308 12.0833 32.0046 12.0809 31.9784 12.0798C31.5935 12.0647 31.3865 11.6208 31.6224 11.3163C31.7428 11.1609 31.9008 11.0391 32.0816 10.9623L33.2396 10.4701C34.1566 10.0804 34.3882 8.88601 33.682 8.18205C33.5572 8.0577 33.5554 7.85203 33.6836 7.72382L34.1892 7.21822C34.3094 7.09804 34.4868 7.05557 34.6482 7.10815L35.0225 7.23009C35.8189 7.4894 36.664 6.99879 36.8335 6.17861L37.0049 5.34976C37.0869 4.95314 36.8318 4.56513 36.4352 4.48313C36.0386 4.40112 35.6506 4.65617 35.5686 5.05279L35.4112 5.81417L35.1025 5.71363C34.4162 5.49004 33.6625 5.67075 33.1522 6.18113L32.6465 6.68673C31.97 7.36329 31.9447 8.45109 32.5839 9.15519L31.5082 9.6124C31.0965 9.78725 30.7368 10.0647 30.463 10.4181C29.5056 11.6539 30.3286 13.4499 31.8773 13.5432L35.45 14.0706C36.2697 14.2228 37.0134 14.6479 37.5586 15.2773C37.8398 15.602 38.1442 15.9907 38.4253 16.3659C38.8621 16.9486 38.5957 17.7695 37.9606 17.9876L37.9556 17.9878C37.925 17.9893 37.8533 17.9884 37.8227 17.9863Z" fill="#010101"/>
<path d="M9.85299 32.067C9.56739 32.3542 9.10307 32.3555 8.81591 32.0699C8.81591 32.0699 8.80029 30.1787 10.2667 29.9393C11.7331 29.7 11.7174 27.8088 11.7174 27.8088C11.8023 27.3506 12.0775 27.056 12.3405 26.8652C12.5301 26.7277 12.766 26.6103 12.9382 26.5246C12.9746 26.5065 13.0082 26.4898 13.0379 26.4746C13.4383 26.2699 13.6241 26.1227 13.6967 25.8056C13.7486 25.5788 13.6467 25.2873 13.1304 24.8203C12.8979 24.6101 12.6331 24.4103 12.3521 24.1984L12.3273 24.1797C12.0548 23.9741 11.7461 23.7412 11.5096 23.5046C11.0808 23.0758 10.6911 22.5661 10.4932 21.9672C10.2873 21.3439 10.3057 20.672 10.6186 19.9835C10.6291 19.9604 10.6357 19.943 10.6398 19.9306C10.6072 19.8736 10.5338 19.7873 10.3208 19.5387C9.8745 19.0177 9.24946 18.2235 8.82576 16.6409C8.51869 15.4942 7.40151 14.5932 6.26244 14.1919C5.88045 14.0573 5.67987 13.6386 5.81444 13.2566C5.94901 12.8746 6.36777 12.674 6.74977 12.8086C8.14971 13.3017 9.76479 14.4775 10.2425 16.2616C10.5922 17.5677 11.0799 18.1704 11.4347 18.5846C11.4537 18.6067 11.4742 18.6303 11.4957 18.6551C11.6534 18.8363 11.87 19.0854 11.9905 19.3552C12.1732 19.7642 12.1422 20.1758 11.9538 20.5903C11.7932 20.9437 11.7958 21.2346 11.8858 21.5071C11.9839 21.8039 12.202 22.1229 12.5467 22.4675C12.6968 22.6177 12.9169 22.7872 13.2106 23.0088L13.2528 23.0406C13.5199 23.242 13.8318 23.4772 14.1142 23.7325C14.6712 24.2363 15.3744 25.0497 15.1263 26.133C14.899 27.1261 14.1772 27.5393 13.7056 27.7805C13.6413 27.8134 13.585 27.8416 13.535 27.8667C13.3782 27.9454 13.2839 27.9928 13.2018 28.0523C13.178 28.0696 13.1643 28.082 13.1572 28.0892C13.1344 28.2155 13.119 28.3548 13.0996 28.5307C13.0916 28.6028 13.0829 28.6811 13.0728 28.7672C13.04 29.0461 12.994 29.3776 12.9023 29.7074C12.7149 30.3817 12.3071 31.1349 11.3598 31.4741C11.1511 31.5488 10.9558 31.6092 10.7847 31.6616L10.7461 31.6735C10.5871 31.7221 10.4565 31.7621 10.3358 31.8048C10.0789 31.8958 9.94596 31.9736 9.85299 32.067Z" fill="#010101"/>
<path d="M11.2905 9.59551C10.5692 9.71567 9.73974 9.61957 8.74452 9.06005C8.39148 8.86157 7.94438 8.98687 7.7459 9.33991C7.54742 9.69295 7.67272 10.14 8.02576 10.3385C9.29122 11.05 10.4573 11.2212 11.5315 11.0422C12.5832 10.867 13.4851 10.366 14.2499 9.84525C14.6123 9.59846 14.9574 9.33756 15.2745 9.0978L15.3287 9.05684C15.6674 8.80082 15.9699 8.57409 16.2588 8.38656C16.3673 8.31608 16.4686 8.25483 16.5634 8.2021L17.5299 7.94669L18.2609 8.10398C18.5844 8.17578 18.9084 8.24768 19.1757 8.2967C19.6955 8.392 20.2496 8.45618 20.7845 8.36487C21.3497 8.26836 21.8633 8.00371 22.2915 7.50642C22.7016 7.03034 23.0058 6.37349 23.2417 5.53121C23.5595 4.39596 24.6631 3.92621 26.0923 3.54783C26.2366 3.50963 26.3876 3.47163 26.5411 3.43301C27.0596 3.30253 27.6068 3.16483 28.0204 2.98783C28.2981 2.86898 28.6093 2.69676 28.8388 2.42185C29.0954 2.11438 29.2066 1.73003 29.1443 1.3101C29.0849 0.90947 28.7119 0.632859 28.3113 0.69227C27.9181 0.750581 27.6444 1.1109 27.6905 1.503C27.6572 1.53037 27.5849 1.57885 27.4433 1.63946C27.146 1.7667 26.7648 1.86295 26.2822 1.9848C26.1074 2.02894 25.9192 2.07646 25.7169 2.13001C24.3615 2.48887 22.3954 3.11413 21.8293 5.13573L21.1802 6.54932L20.5376 6.91913L19.4403 6.85409L18.636 6.68473C18.3932 6.63013 18.1314 6.57128 17.8176 6.50851C16.9247 6.32994 16.1152 6.73111 15.4601 7.15644C15.1204 7.37702 14.777 7.63538 14.4444 7.88677L14.3978 7.922L13.4244 8.63294L11.2905 9.59551Z" fill="#010101"/>
<path fill-rule="evenodd" clip-rule="evenodd" d="M16.3524 53.5333C16.2721 53.5333 16.2071 53.4683 16.2071 53.3881C16.2071 52.4417 16.9742 51.6746 17.9206 51.6746H36.4097C37.3561 51.6746 38.1232 52.4417 38.1232 53.3881C38.1232 53.4683 38.0581 53.5333 37.9779 53.5333H16.3524ZM14.7404 53.3881C14.7404 54.2783 15.4621 55 16.3524 55H37.9779C38.8681 55 39.5898 54.2783 39.5898 53.3881C39.5898 51.6317 38.1661 50.2079 36.4097 50.2079H17.9206C16.1642 50.2079 14.7404 51.6317 14.7404 53.3881Z" fill="#010101"/>
<path fill-rule="evenodd" clip-rule="evenodd" d="M18.6274 51.6746C19.0324 51.6746 19.3608 51.3462 19.3608 50.9412V49.7762C19.3608 49.1857 19.8394 48.707 20.43 48.707H33.9004C34.4908 48.707 34.9695 49.1857 34.9695 49.7762V50.9412C34.9695 51.3462 35.2978 51.6746 35.7028 51.6746C36.1078 51.6746 36.4362 51.3462 36.4362 50.9412V49.7762C36.4362 48.3758 35.3009 47.2403 33.9004 47.2403H20.43C19.0294 47.2403 17.8941 48.3757 17.8941 49.7762V50.9412C17.8941 51.3462 18.2224 51.6746 18.6274 51.6746Z" fill="#010101"/>
<path fill-rule="evenodd" clip-rule="evenodd" d="M23.1608 48.6824C23.5522 48.7864 23.9538 48.5534 24.0578 48.162L24.9022 44.9845C25.0062 44.5931 24.7732 44.1915 24.3818 44.0875C23.9904 43.9834 23.5887 44.2164 23.4847 44.6079L22.6404 47.7853C22.5364 48.1767 22.7693 48.5783 23.1608 48.6824Z" fill="#010101"/>
<path fill-rule="evenodd" clip-rule="evenodd" d="M31.1698 48.6824C31.5612 48.5784 31.7942 48.1768 31.6902 47.7854L30.6743 43.9622C30.5703 43.5708 30.1686 43.3378 29.7772 43.4418C29.3858 43.5458 29.1528 43.9475 29.2568 44.3389L30.2727 48.1621C30.3768 48.5535 30.7784 48.7865 31.1698 48.6824Z" fill="#010101"/>
</g>
<defs>
<clipPath id="clip0_164_3780">
<rect width="55" height="55" fill="white" transform="matrix(1 0 0 -1 0 55)"/>
</clipPath>
</defs>
</svg>
