<svg width="25" height="25" viewBox="0 0 25 25" fill="none" xmlns="http://www.w3.org/2000/svg">
<path d="M15.625 12.5C15.625 13.1181 15.4417 13.7223 15.0983 14.2362C14.755 14.7501 14.2669 15.1506 13.6959 15.3871C13.1249 15.6236 12.4965 15.6855 11.8903 15.565C11.2842 15.4444 10.7273 15.1467 10.2903 14.7097C9.85325 14.2727 9.55562 13.7158 9.43505 13.1097C9.31447 12.5035 9.37635 11.8751 9.61288 11.3041C9.8494 10.7331 10.2499 10.245 10.7638 9.90166C11.2777 9.55828 11.8819 9.375 12.5 9.375C13.328 9.37758 14.1214 9.70764 14.7069 10.2931C15.2924 10.8786 15.6224 11.672 15.625 12.5ZM22.2656 8.20312V16.7969C22.2656 18.2473 21.6895 19.6383 20.6639 20.6639C19.6383 21.6895 18.2473 22.2656 16.7969 22.2656H8.20312C6.75272 22.2656 5.36172 21.6895 4.33613 20.6639C3.31055 19.6383 2.73438 18.2473 2.73438 16.7969V8.20312C2.73438 6.75272 3.31055 5.36172 4.33613 4.33613C5.36172 3.31055 6.75272 2.73438 8.20312 2.73438H16.7969C18.2473 2.73438 19.6383 3.31055 20.6639 4.33613C21.6895 5.36172 22.2656 6.75272 22.2656 8.20312ZM17.1875 12.5C17.1875 11.5729 16.9126 10.6666 16.3975 9.89576C15.8824 9.12491 15.1504 8.5241 14.2938 8.16931C13.4373 7.81453 12.4948 7.7217 11.5855 7.90257C10.6762 8.08344 9.841 8.52988 9.18544 9.18544C8.52988 9.841 8.08344 10.6762 7.90257 11.5855C7.7217 12.4948 7.81453 13.4373 8.16931 14.2938C8.5241 15.1504 9.12491 15.8824 9.89576 16.3975C10.6666 16.9126 11.5729 17.1875 12.5 17.1875C13.7432 17.1875 14.9355 16.6936 15.8146 15.8146C16.6936 14.9355 17.1875 13.7432 17.1875 12.5ZM18.75 7.42188C18.75 7.1901 18.6813 6.96353 18.5525 6.77082C18.4237 6.5781 18.2407 6.4279 18.0266 6.3392C17.8124 6.25051 17.5768 6.2273 17.3495 6.27252C17.1222 6.31773 16.9134 6.42934 16.7495 6.59323C16.5856 6.75712 16.474 6.96593 16.4288 7.19325C16.3835 7.42057 16.4068 7.6562 16.4955 7.87033C16.5842 8.08446 16.7344 8.26749 16.9271 8.39625C17.1198 8.52502 17.3463 8.59375 17.5781 8.59375C17.8889 8.59375 18.187 8.47028 18.4068 8.25052C18.6265 8.03075 18.75 7.73268 18.75 7.42188Z" fill="currentColor"/>
</svg>
