<svg width="55" height="55" viewBox="0 0 55 55" fill="none" xmlns="http://www.w3.org/2000/svg">
<g clip-path="url(#clip0_164_3786)">
<path fill-rule="evenodd" clip-rule="evenodd" d="M25.1269 27.1556L26.0734 27.1516C26.5781 27.1496 27.1419 27.1476 27.3855 27.1476C28.7801 27.1476 29.9105 26.0171 29.9105 24.6226C29.9105 23.228 28.7801 22.0975 27.3855 22.0975H25.1236C24.7186 22.0975 24.3903 22.4259 24.3903 22.8309V26.4222C24.3903 26.6173 24.468 26.8043 24.6062 26.9419C24.7445 27.0796 24.9319 27.1564 25.1269 27.1556ZM25.857 25.6858V23.5642H27.3855C27.97 23.5642 28.4438 24.038 28.4438 24.6226C28.4438 25.2071 27.97 25.6809 27.3855 25.6809C27.1383 25.6809 26.5712 25.6829 26.0676 25.6849L25.857 25.6858Z" fill="#010101"/>
<path fill-rule="evenodd" clip-rule="evenodd" d="M25.1269 31.3508L26.2396 31.3462C26.8326 31.3439 27.4952 31.3416 27.7805 31.3416C29.343 31.3416 30.6098 30.075 30.6098 28.5124C30.6098 26.9497 29.343 25.6831 27.7805 25.6831H25.1236C24.7186 25.6831 24.3903 26.0115 24.3903 26.4165V30.6175C24.3903 30.8126 24.468 30.9996 24.6062 31.1372C24.7445 31.2748 24.9318 31.3517 25.1269 31.3508ZM25.857 29.8811V27.1498H27.7805C28.5331 27.1498 29.1431 27.7598 29.1431 28.5124C29.1431 29.2649 28.5331 29.8749 27.7805 29.8749C27.4916 29.8749 26.8258 29.8772 26.2339 29.8795L25.857 29.8811Z" fill="#010101"/>
<path fill-rule="evenodd" clip-rule="evenodd" d="M20.4427 31.4188C20.8216 31.2758 21.0128 30.8527 20.8698 30.4738L17.9725 22.7965C17.9699 22.7898 17.9673 22.7832 17.9646 22.7766C17.655 22.0233 16.5888 22.0258 16.281 22.7782L16.2745 22.7948L13.3506 30.4717C13.2064 30.8502 13.3964 31.2739 13.7749 31.4181C14.1534 31.5622 14.5771 31.3722 14.7212 30.9938L17.1208 24.6935L19.4976 30.9917C19.6406 31.3706 20.0637 31.5618 20.4427 31.4188Z" fill="#010101"/>
<path fill-rule="evenodd" clip-rule="evenodd" d="M14.2145 28.8207C14.2145 29.2257 14.5428 29.554 14.9478 29.554H19.2865C19.6915 29.554 20.0198 29.2257 20.0198 28.8207C20.0198 28.4157 19.6915 28.0874 19.2865 28.0874H14.9478C14.5428 28.0874 14.2145 28.4157 14.2145 28.8207Z" fill="#010101"/>
<path fill-rule="evenodd" clip-rule="evenodd" d="M35.3514 26.7242C35.3514 28.4694 36.7661 29.8842 38.5114 29.8842C39.2134 29.8842 39.7558 29.6572 40.1604 29.2969L40.4022 29.0473C40.6624 28.7369 41.1249 28.6962 41.4353 28.9564C41.7457 29.2167 41.7863 29.6792 41.5261 29.9896C41.4061 30.1327 41.2759 30.2674 41.1357 30.3922C40.45 31.0029 39.5558 31.3508 38.5114 31.3508C35.9561 31.3508 33.8847 29.2794 33.8847 26.7242C33.8847 24.1689 35.9561 22.0975 38.5114 22.0975C39.4686 22.0975 40.3599 22.389 41.0987 22.8881C41.4343 23.1148 41.5226 23.5706 41.2959 23.9062C41.0692 24.2418 40.6133 24.3301 40.2777 24.1034C39.7737 23.763 39.1669 23.5642 38.5114 23.5642C36.7661 23.5642 35.3514 24.979 35.3514 26.7242Z" fill="#010101"/>
<path fill-rule="evenodd" clip-rule="evenodd" d="M0 40.3113C0 43.1586 2.30821 45.4667 5.15538 45.4667H49.8446C52.6919 45.4667 55 43.1586 55 40.3113C55 39.0801 54.0019 38.0821 52.7709 38.0821H2.22915C0.998122 38.0821 0 39.0801 0 40.3113ZM5.15538 44C3.1182 44 1.46667 42.3486 1.46667 40.3113C1.46667 39.8902 1.80807 39.5488 2.22915 39.5488H52.7709C53.1919 39.5488 53.5333 39.8902 53.5333 40.3113C53.5333 42.3486 51.8819 44 49.8446 44H5.15538Z" fill="#010101"/>
<path fill-rule="evenodd" clip-rule="evenodd" d="M23.5119 41.0412C22.2827 41.0412 21.2863 40.0447 21.2863 38.8155C21.2863 38.4105 20.958 38.0822 20.5529 38.0822C20.1479 38.0822 19.8196 38.4105 19.8196 38.8155C19.8196 40.8547 21.4727 42.5078 23.5119 42.5078H31.4889C33.5282 42.5078 35.1812 40.8547 35.1812 38.8155C35.1812 38.4105 34.8529 38.0822 34.4479 38.0822C34.0429 38.0822 33.7146 38.4105 33.7146 38.8155C33.7146 40.0447 32.7181 41.0412 31.4889 41.0412H23.5119Z" fill="#010101"/>
<path fill-rule="evenodd" clip-rule="evenodd" d="M8.5765 39.5489C8.98151 39.5489 9.30983 39.2205 9.30983 38.8155V20.6451C9.30983 20.2401 8.98151 19.9118 8.5765 19.9118C8.17149 19.9118 7.84317 20.2401 7.84317 20.6451V38.8155C7.84317 39.2205 8.17149 39.5489 8.5765 39.5489Z" fill="#010101"/>
<path fill-rule="evenodd" clip-rule="evenodd" d="M46.4236 35.549C46.8286 35.549 47.157 35.2207 47.157 34.8157V14.5931C47.157 13.7662 46.4866 13.0959 45.6597 13.0959H9.34042C8.51363 13.0959 7.84308 13.7661 7.84308 14.5931V16.8685C7.84308 17.2735 8.1714 17.6018 8.57641 17.6018C8.98142 17.6018 9.30974 17.2735 9.30974 16.8685V14.5931C9.30974 14.5764 9.32338 14.5626 9.34042 14.5626H45.6597C45.6766 14.5626 45.6903 14.5762 45.6903 14.5931V34.8157C45.6903 35.2207 46.0186 35.549 46.4236 35.549Z" fill="#010101"/>
<path fill-rule="evenodd" clip-rule="evenodd" d="M4.91426 39.5488C5.31927 39.5488 5.64759 39.2205 5.64759 38.8154V13.1216C5.64759 11.8948 6.64216 10.9003 7.86904 10.9003H47.1311C48.3579 10.9003 49.3525 11.8948 49.3525 13.1216V27.4795C49.3525 27.8845 49.6808 28.2129 50.0858 28.2129C50.4908 28.2129 50.8192 27.8845 50.8192 27.4795V13.1216C50.8192 11.0847 49.1679 9.43359 47.1311 9.43359H7.86904C5.83221 9.43359 4.18092 11.0847 4.18092 13.1216V38.8154C4.18092 39.2205 4.50925 39.5488 4.91426 39.5488Z" fill="#010101"/>
<path fill-rule="evenodd" clip-rule="evenodd" d="M50.0859 35.549C50.4909 35.549 50.8192 35.2207 50.8192 34.8157V31.2201C50.8192 30.8151 50.4909 30.4868 50.0859 30.4868C49.6809 30.4868 49.3525 30.8151 49.3525 31.2201V34.8157C49.3525 35.2207 49.6809 35.549 50.0859 35.549Z" fill="#010101"/>
<path fill-rule="evenodd" clip-rule="evenodd" d="M40.0938 39.5489C40.4988 39.5489 40.8271 39.2205 40.8271 38.8155V36.8156C40.8271 36.1161 41.3942 35.5491 42.0937 35.5491H50.3259C51.0254 35.5491 51.5925 36.1162 51.5925 36.8156V38.8155C51.5925 39.2205 51.9208 39.5489 52.3258 39.5489C52.7308 39.5489 53.0591 39.2205 53.0591 38.8155V36.8156C53.0591 35.3061 51.8354 34.0824 50.3259 34.0824H42.0937C40.5841 34.0824 39.3605 35.3062 39.3605 36.8156V38.8155C39.3605 39.2205 39.6888 39.5489 40.0938 39.5489Z" fill="#010101"/>
</g>
<defs>
<clipPath id="clip0_164_3786">
<rect width="55" height="55" fill="white" transform="matrix(1 0 0 -1 0 55)"/>
</clipPath>
</defs>
</svg>
