<svg width="55" height="55" viewBox="0 0 55 55" fill="none" xmlns="http://www.w3.org/2000/svg">
<g clip-path="url(#clip0_164_3774)">
<path fill-rule="evenodd" clip-rule="evenodd" d="M18.9051 26.543C19.7376 27.5695 21.3985 26.9813 21.3985 25.6591V22.184C21.3985 22.1163 21.4533 22.0617 21.5208 22.0617C23.3063 22.0617 24.7539 20.6142 24.7539 18.8285V6.59472C24.7539 4.80915 23.3064 3.36157 21.5208 3.36157H3.23315C1.44758 3.36157 0 4.80915 0 6.59472V18.8285C0 20.6142 1.4476 22.0617 3.23315 22.0617H15.2126C15.2495 22.0617 15.2843 22.0783 15.3075 22.1069L18.9051 26.543ZM19.9319 25.4807L16.4468 21.1832C16.4467 21.1832 16.4468 21.1832 16.4468 21.1832C16.145 20.8111 15.6915 20.595 15.2126 20.595H3.23315C2.25757 20.595 1.46667 19.8042 1.46667 18.8285V6.59472C1.46667 5.61917 2.2576 4.82824 3.23315 4.82824H21.5208C22.4963 4.82824 23.2873 5.61917 23.2873 6.59472V18.8285C23.2873 19.8042 22.4964 20.595 21.5208 20.595C20.6432 20.595 19.9319 21.3064 19.9319 22.184V25.4807Z" fill="#010101"/>
<path fill-rule="evenodd" clip-rule="evenodd" d="M27.0651 7.82852C27.0651 7.42351 27.3934 7.09519 27.7984 7.09519H51.9568C53.6375 7.09519 55 8.4578 55 10.1384V49.7567C55 51.4375 53.6375 52.8 51.9568 52.8H5.21591C3.53527 52.8 2.17265 51.4375 2.17265 49.7567V25.1054C2.17265 24.7004 2.50098 24.372 2.90599 24.372C3.311 24.372 3.63932 24.7004 3.63932 25.1054V49.7567C3.63932 50.6274 4.34524 51.3333 5.21591 51.3333H51.9568C52.8275 51.3333 53.5333 50.6275 53.5333 49.7567V10.1384C53.5333 9.26777 52.8275 8.56185 51.9568 8.56185H27.7984C27.3934 8.56185 27.0651 8.23353 27.0651 7.82852ZM23.2867 12.4825C23.2867 12.0775 23.615 11.7492 24.02 11.7492H48.6591C49.5906 11.7492 50.3459 12.5046 50.3459 13.4361V42.0725C50.3459 43.0042 49.5906 43.7594 48.6591 43.7594H8.51344C7.58171 43.7594 6.82651 43.0042 6.82651 42.0725V21.3284C6.82651 20.9234 7.15484 20.5951 7.55985 20.5951C7.96486 20.5951 8.29318 20.9234 8.29318 21.3284V42.0725C8.29318 42.1942 8.39172 42.2927 8.51344 42.2927H48.6591C48.7806 42.2927 48.8792 42.1942 48.8792 42.0725V13.4361C48.8792 13.3145 48.7805 13.2159 48.6591 13.2159H24.02C23.615 13.2159 23.2867 12.8876 23.2867 12.4825ZM6.82651 47.6512C6.82651 47.2462 7.15484 46.9179 7.55985 46.9179H49.6126C50.0176 46.9179 50.3459 47.2462 50.3459 47.6512C50.3459 48.0562 50.0176 48.3845 49.6126 48.3845H7.55985C7.15484 48.3845 6.82651 48.0562 6.82651 47.6512Z" fill="#010101"/>
<path fill-rule="evenodd" clip-rule="evenodd" d="M30.9779 20.4529C30.9779 17.7694 33.1532 15.5942 35.8365 15.5942H40.4253C43.1087 15.5942 45.284 17.7694 45.284 20.4529V22.9877C45.8922 23.3696 46.2964 24.0464 46.2964 24.8175V25.67C46.2964 26.862 45.3307 27.8291 44.138 27.8291H43.5306C43.274 28.7134 42.8021 29.5384 42.0512 30.1851C41.8599 30.3497 41.6514 30.5106 41.4255 30.6621V31.0649C41.4255 31.2296 41.4507 31.3909 41.4984 31.544C41.7535 31.4744 42.0281 31.485 42.2831 31.5815L43.3943 32.0021C43.7696 32.1443 44.0371 32.444 44.1525 32.7959C47.7929 33.869 50.347 37.2224 50.3469 41.0839V42.0326C50.3469 42.9863 49.5738 43.7594 48.6201 43.7594C48.2151 43.7594 47.8868 43.4311 47.8868 43.0261C47.8868 42.621 48.2151 42.2927 48.6201 42.2927C48.7638 42.2927 48.8802 42.1763 48.8802 42.0326V41.0839C48.8803 37.9249 46.8212 35.1748 43.8686 34.2427L43.1073 35.9611C42.751 36.7656 41.8769 37.181 41.0488 36.9861L40.0274 38.6153L41.0513 42.8539C41.1464 43.2475 40.9044 43.6438 40.5107 43.7389C40.117 43.834 39.7208 43.5919 39.6257 43.1983L38.6648 39.2207H37.5929L36.6322 43.1982C36.5371 43.5919 36.1408 43.834 35.7471 43.7389C35.3535 43.6438 35.1114 43.2476 35.2065 42.8539L36.2303 38.6153L35.2093 36.9869C34.3822 37.1799 33.51 36.7646 33.1541 35.9612L32.3928 34.2433C29.4414 35.1761 27.3833 37.9255 27.3833 41.0839V43.0261C27.3833 43.4311 27.0549 43.7594 26.6499 43.7594C26.2449 43.7594 25.9166 43.4311 25.9166 43.0261V41.0839C25.9166 37.2233 28.4694 33.8706 32.1084 32.7966C32.2238 32.4443 32.4916 32.1443 32.8669 32.0022L33.9783 31.5815C34.2337 31.4848 34.509 31.4744 34.7645 31.5444C34.8124 31.3911 34.8376 31.2297 34.8376 31.0649V30.6627C34.6114 30.511 34.4026 30.3499 34.2112 30.1851C33.4597 29.5381 32.9898 28.7128 32.7348 27.8291H32.1258C30.933 27.8291 29.9673 26.8621 29.9673 25.67V24.8175C29.9673 24.0471 30.3706 23.3707 30.9779 22.9886V20.4529ZM34.2275 21.8039V20.7035V20.5583C34.2275 19.6415 34.964 18.8686 35.9036 18.8658C36.3831 18.8643 36.8201 18.9252 37.1889 19.0063C37.8097 19.1428 38.4522 19.1428 39.0729 19.0063C39.2996 18.9565 39.5521 18.9143 39.8243 18.8895C39.995 18.8739 40.1735 18.8652 40.3583 18.8658C41.2977 18.8686 42.0344 19.6414 42.0344 20.5583V22.2334C42.0344 22.4682 42.2246 22.6584 42.4593 22.6584H43.8173V20.4529C43.8173 18.5794 42.2987 17.0609 40.4253 17.0609H35.8365C33.9632 17.0609 32.4445 18.5794 32.4445 20.4529V22.6584H33.8025C34.0372 22.6584 34.2275 22.4681 34.2275 22.2334V21.8039ZM32.4991 26.3624C32.4965 26.3046 32.4945 26.2468 32.4933 26.1891L32.4931 26.1739L32.4916 24.1251H32.1257C32.056 24.1251 31.9887 24.1356 31.9244 24.1551L31.9108 24.1591C31.634 24.2495 31.4339 24.5098 31.4339 24.8175V25.67C31.4339 26.0528 31.7437 26.3624 32.1258 26.3624H32.4991ZM42.3064 24.119C41.3331 24.0411 40.5677 23.2267 40.5677 22.2334V20.5583C40.5677 20.427 40.4624 20.3328 40.3539 20.3325C40.0001 20.3314 39.6715 20.3764 39.3879 20.4388C38.6066 20.6106 37.7993 20.6203 37.015 20.468C36.9679 20.4589 36.9209 20.4491 36.8739 20.4388C36.5905 20.3764 36.2619 20.3314 35.9082 20.3325C35.7996 20.3328 35.6941 20.4269 35.6941 20.5583V21.101V22.2334C35.6941 23.2258 34.9301 24.0395 33.9583 24.1187L33.9598 26.165C33.9657 26.4264 33.9892 26.6812 34.0309 26.927C34.037 26.9527 34.0417 26.979 34.0449 27.0058C34.1999 27.8341 34.5658 28.555 35.1681 29.0736C35.3896 29.2643 35.6372 29.4461 35.9125 29.6062C35.9281 29.6144 35.9433 29.6232 35.9582 29.6324C36.5516 29.9687 37.2711 30.2037 38.1311 30.2147C38.992 30.2037 39.712 29.9683 40.3058 29.6315C40.32 29.6226 40.3346 29.6142 40.3495 29.6064C40.6249 29.4462 40.8726 29.2644 41.0941 29.0737C41.6999 28.552 42.0686 27.8264 42.2234 26.994C42.2261 26.9747 42.2295 26.9555 42.2337 26.9366C42.2755 26.6953 42.2996 26.4453 42.3065 26.1889L42.3064 26.1734V24.119ZM43.773 24.1251V26.1401C43.7738 26.1564 43.774 26.1727 43.7736 26.1891C43.7724 26.2469 43.7704 26.3046 43.7678 26.3624H44.138C44.5199 26.3624 44.8298 26.0528 44.8298 25.67V24.8175C44.8298 24.5123 44.6323 24.2533 44.3582 24.1611C44.3514 24.1592 44.3445 24.1572 44.3377 24.1552C44.2807 24.1379 44.2218 24.1277 44.1609 24.1255L44.1472 24.1252L44.1374 24.1251L44.1284 24.1251H43.773ZM38.1393 31.6814C38.8153 31.6739 39.4266 31.5604 39.9748 31.3776C40.0108 31.7307 40.1073 32.0712 40.2567 32.3856L38.1307 34.0385L36.0058 32.3866C36.1555 32.072 36.2522 31.7312 36.2883 31.3779C36.8363 31.5605 37.4473 31.6739 38.1229 31.6814H38.1393ZM35.4163 35.3323L36.6978 34.7823L34.602 33.1529C34.5894 33.1438 34.5771 33.1343 34.565 33.1243L34.5641 33.1234L34.395 32.992L33.5793 33.3008L34.495 35.367C34.5694 35.5349 34.765 35.6119 34.9338 35.5394L35.0204 35.5023C35.0468 35.48 35.0751 35.4592 35.1052 35.4403C35.2028 35.3792 35.3091 35.3438 35.4163 35.3323ZM38.1307 35.7634L39.6701 36.4241L38.8363 37.754H37.4214L36.5884 36.4254L38.1307 35.7634ZM41.8663 32.992L39.5635 34.7823L40.843 35.3315C40.9499 35.3431 41.0559 35.3784 41.153 35.4394C41.1829 35.4581 41.2109 35.4785 41.237 35.5006L41.3275 35.5394C41.4963 35.6119 41.6919 35.5351 41.7663 35.3671L42.6818 33.3007L41.8663 32.992Z" fill="#010101"/>
<path fill-rule="evenodd" clip-rule="evenodd" d="M11.3233 8.2269C12.0107 8.02096 12.7434 8.02097 13.4309 8.22688L20.1368 10.2363C21.0861 10.5209 21.0861 11.8652 20.1368 12.1498L13.431 14.1592C12.7435 14.3652 12.0107 14.3652 11.3233 14.1592M11.3233 14.1592L4.61745 12.1498C3.66796 11.8653 3.66794 10.5208 4.61743 10.2363L11.3233 8.2269M11.7442 9.63187L6.53422 11.193L11.7442 12.7542C12.157 12.8779 12.597 12.878 13.0099 12.7542L18.22 11.193L13.01 9.63188C12.5971 9.50821 12.157 9.50822 11.7442 9.63187Z" fill="#010101"/>
<path fill-rule="evenodd" clip-rule="evenodd" d="M8.54297 15.9284C8.35524 15.9284 8.20316 15.7763 8.20316 15.5886V12.2392C8.20316 11.8342 7.87483 11.5059 7.46982 11.5059C7.06481 11.5059 6.73649 11.8342 6.73649 12.2392V15.5886C6.73649 16.5863 7.54522 17.3951 8.54297 17.3951H16.2101C17.2078 17.3951 18.0165 16.5863 18.0165 15.5886V12.2392C18.0165 11.8342 17.6882 11.5059 17.2832 11.5059C16.8782 11.5059 16.5499 11.8342 16.5499 12.2392V15.5886C16.5499 15.7764 16.3977 15.9284 16.2101 15.9284H8.54297Z" fill="#010101"/>
<path fill-rule="evenodd" clip-rule="evenodd" d="M12.7782 49.3671C13.1832 49.3671 13.5115 49.0387 13.5115 48.6337V46.6687C13.5115 46.2637 13.1832 45.9354 12.7782 45.9354C12.3732 45.9354 12.0449 46.2637 12.0449 46.6687V48.6337C12.0449 49.0387 12.3732 49.3671 12.7782 49.3671Z" fill="#010101"/>
<path fill-rule="evenodd" clip-rule="evenodd" d="M20.1026 14.0866C20.5076 14.0866 20.8359 13.7582 20.8359 13.3532V11.2771C20.8359 10.872 20.5076 10.5437 20.1026 10.5437C19.6976 10.5437 19.3692 10.872 19.3692 11.2771V13.3532C19.3692 13.7582 19.6976 14.0866 20.1026 14.0866Z" fill="#010101"/>
</g>
<defs>
<clipPath id="clip0_164_3774">
<rect width="55" height="55" fill="white" transform="matrix(1 0 0 -1 0 55)"/>
</clipPath>
</defs>
</svg>
