<svg width="55" height="55" viewBox="0 0 55 55" fill="none" xmlns="http://www.w3.org/2000/svg">
<g clip-path="url(#clip0_164_3777)">
<path fill-rule="evenodd" clip-rule="evenodd" d="M45.1651 11.4201C45.5702 11.4205 45.8988 11.0925 45.8992 10.6874L45.9024 7.16728C45.9028 6.76227 45.5747 6.43365 45.1697 6.43327C44.7647 6.4329 44.4361 6.76092 44.4357 7.16593L44.4325 10.6861C44.4321 11.0911 44.7601 11.4197 45.1651 11.4201Z" fill="#010101"/>
<path fill-rule="evenodd" clip-rule="evenodd" d="M14.2663 54.9715C14.6713 54.9718 14.9999 54.6438 15.0003 54.2388L15.0059 47.9798C15.0062 47.5748 14.6782 47.2462 14.2732 47.2458C13.8682 47.2455 13.5396 47.5735 13.5392 47.9785L13.5336 54.2375C13.5333 54.6425 13.8613 54.9711 14.2663 54.9715Z" fill="#010101"/>
<path fill-rule="evenodd" clip-rule="evenodd" d="M40.6357 54.9715C41.0407 54.9718 41.3693 54.6438 41.3697 54.2388L41.3754 47.9798C41.3757 47.5748 41.0477 47.2462 40.6427 47.2458C40.2377 47.2455 39.9091 47.5735 39.9087 47.9785L39.903 54.2375C39.9026 54.6425 40.2306 54.9711 40.6357 54.9715Z" fill="#010101"/>
<path fill-rule="evenodd" clip-rule="evenodd" d="M45.2484 53.5333L9.65338 53.5014C8.41571 53.5002 7.33208 52.4125 7.33337 50.968L7.33509 49.1119C7.34106 42.5007 11.4614 36.8301 17.2186 35.0649C17.2298 35.0621 17.2411 35.059 17.2523 35.0556C17.6658 34.9297 18.0495 34.8375 18.4454 34.7529L16.8599 33.6419C16.8483 33.6448 16.8367 33.6481 16.8252 33.6516C10.3877 35.6066 5.87495 41.8904 5.86842 49.1105L5.8667 50.9666C5.86476 53.1282 7.51445 54.9661 9.65207 54.968L45.2471 55C47.3845 55.0018 49.0377 53.1671 49.0396 51.0055L49.0412 49.1493C49.0477 41.9251 44.5437 35.6376 38.1123 33.6706C38.1008 33.6671 38.0893 33.6639 38.0777 33.6609C37.4006 33.4553 36.8868 33.3518 36.4546 33.2647C36.3192 33.2374 36.1918 33.2118 36.0699 33.1851L36.0588 33.1826L36.0516 33.1811L35.2837 33.0224C33.9377 32.7443 32.936 31.6082 32.8782 30.2736C32.8762 30.2273 32.8752 30.18 32.8752 30.1321L32.8765 28.7196C32.8769 28.3146 32.5489 27.9859 32.1439 27.9856C31.7388 27.9852 31.4102 28.3132 31.4098 28.7182L31.4086 30.1308C31.4086 30.1989 31.4099 30.2681 31.4129 30.3368C31.5014 32.3809 33.021 34.0526 34.9869 34.4587L35.5982 34.585C35.6906 34.6276 35.803 34.6575 35.9268 34.6542C36.0207 34.6738 36.1129 34.6924 36.2054 34.7111C36.6325 34.7972 37.0638 34.8842 37.6826 35.0738C37.6937 35.0772 37.7049 35.0803 37.7161 35.0832C43.4682 36.8591 47.5805 42.5332 47.5745 49.1481L47.5729 51.0041C47.5716 52.4485 46.486 53.5343 45.2484 53.5333ZM23.3423 31.4083L22.0684 30.1217L22.0697 28.7098C22.0701 28.3048 22.3987 27.9768 22.8037 27.9772C23.2088 27.9775 23.5368 28.3062 23.5364 28.7112L23.5351 30.1244C23.535 30.1912 23.5336 30.2598 23.5304 30.3299C23.5135 30.7037 23.4488 31.065 23.3423 31.4083Z" fill="#010101"/>
<path d="M19.9522 34.4447C19.6574 34.5076 19.3855 34.562 19.127 34.6136C18.8911 34.6607 18.6664 34.7056 18.4454 34.7529L16.8599 33.6419C17.5653 33.4294 18.2272 33.2972 18.9005 33.1627C19.1474 33.1134 19.3959 33.0638 19.6486 33.0098L19.6548 33.0085C21.0013 32.7329 22.005 31.5985 22.0652 30.2639L22.0653 30.2627C22.0673 30.2179 22.0683 30.1706 22.0684 30.1217L23.3423 31.4083C22.8668 32.9409 21.5577 34.1148 19.9522 34.4447Z" fill="#010101"/>
<path fill-rule="evenodd" clip-rule="evenodd" d="M34.7327 22.3569C34.6664 26.3108 31.4408 29.4938 27.4725 29.4902C23.5043 29.4867 20.2844 26.2978 20.2253 22.3438L20.229 18.06C20.229 18.06 20.229 18.06 20.229 18.06C20.2301 17.0284 21.0671 16.1928 22.0988 16.1936C22.0988 16.1936 22.0988 16.1936 22.0988 16.1936L25.6069 16.1969C27.0045 16.198 28.3442 15.6385 29.3257 14.6438C29.9205 14.041 30.7321 13.7021 31.5789 13.7028M34.7327 22.3569L34.7375 16.867C34.7391 15.121 33.3249 13.7044 31.5789 13.7028M27.4712 30.9569C32.2446 30.9612 36.123 27.1307 36.1992 22.375L36.1993 22.3639L36.2042 16.8683C36.2065 14.3123 34.1363 12.2384 31.5803 12.2361C30.3407 12.2351 29.1525 12.7312 28.2817 13.6137C27.5761 14.3288 26.613 14.731 25.6082 14.7302L22.1001 14.727C20.2585 14.7254 18.7642 16.2169 18.7624 18.0586L18.7586 22.3482L18.7587 22.3593C18.8263 27.1151 22.6979 30.9526 27.4712 30.9569Z" fill="#010101"/>
<path d="M15.0262 20.3132C15.0283 18.4245 16.5609 16.8953 18.4494 16.8969L19.5324 16.8979C19.9374 16.8982 20.2654 17.2268 20.265 17.6319C20.2647 18.0369 19.9361 18.3649 19.5311 18.3645L18.4481 18.3636C17.3694 18.3626 16.494 19.2362 16.4928 20.3148C16.4916 21.394 17.3655 22.2698 18.4446 22.2708L19.5308 22.2718C19.9358 22.2721 20.2638 22.6007 20.2634 23.0058C20.2631 23.4108 19.9345 23.7388 19.5294 23.7384L18.4433 23.7375C16.554 23.7357 15.024 22.2025 15.0262 20.3132Z" fill="#010101"/>
<path fill-rule="evenodd" clip-rule="evenodd" d="M34.7367 17.6447C34.7371 17.2397 35.0657 16.9117 35.4707 16.9121L36.5233 16.9131C38.4119 16.9148 39.9416 18.447 39.9405 20.3355C39.9392 22.2248 38.4063 23.7553 36.5171 23.7536L35.4256 23.7527C35.0206 23.7523 34.6926 23.4237 34.693 23.0187C34.6933 22.6137 35.0219 22.2856 35.4269 22.286L36.5184 22.287C37.5975 22.2879 38.4731 21.4137 38.4738 20.3347C38.4744 19.2559 37.6006 18.3807 36.5219 18.3797L35.7568 18.379L35.4693 18.3787C35.0643 18.3784 34.7363 18.0497 34.7367 17.6447Z" fill="#010101"/>
<path fill-rule="evenodd" clip-rule="evenodd" d="M36.2771 34.366C36.4112 34.7482 36.8298 34.9492 37.2119 34.8151C40.7544 33.5717 42.6158 29.4498 40.9856 25.8726C40.975 25.8495 40.964 25.8255 40.953 25.8018C40.953 25.8017 40.9531 25.8019 40.953 25.8018C40.2687 24.3236 39.9333 22.7003 39.9341 21.0574L39.9358 17.4016C39.9369 16.1626 39.7559 14.9648 39.4196 13.834C39.3041 13.4458 38.8958 13.2247 38.5076 13.3402C38.1194 13.4557 37.8983 13.864 38.0138 14.2522C38.3103 15.2492 38.4701 16.3055 38.4691 17.4003L38.4674 21.0567C38.4665 22.8986 38.8426 24.7341 39.6222 26.4182L39.651 26.4808C40.9184 29.2623 39.4667 32.4693 36.7262 33.4312C36.344 33.5653 36.143 33.9839 36.2771 34.366Z" fill="#010101"/>
<path fill-rule="evenodd" clip-rule="evenodd" d="M18.6595 34.3502C18.7943 33.9683 18.594 33.5494 18.2121 33.4146C15.4732 32.4477 14.0272 29.2385 15.2996 26.4592C15.2996 26.4594 15.2997 26.4591 15.2996 26.4592L15.3286 26.3965C15.3287 26.3962 15.3288 26.396 15.3289 26.3957C16.1114 24.7132 16.4907 22.8786 16.4931 21.037L16.4978 17.3809C16.4989 16.2052 16.6851 15.0739 17.0272 14.0135C17.1516 13.6281 16.9399 13.2148 16.5545 13.0904C16.1691 12.9661 15.7558 13.1777 15.6314 13.5631C15.2433 14.7662 15.0324 16.0485 15.0312 17.379L15.0264 21.0351C15.0243 22.6781 14.6858 24.3008 13.9987 25.7779L13.9983 25.7789L13.9677 25.8452L13.9663 25.8482C12.3295 29.4226 14.1836 33.5478 17.7238 34.7976C18.1058 34.9324 18.5247 34.7321 18.6595 34.3502Z" fill="#010101"/>
<path fill-rule="evenodd" clip-rule="evenodd" d="M38.3214 13.3953C31.1462 11.5718 24.1357 11.5653 16.9576 13.3761L16.3498 9.78232C17.0506 9.58956 17.7492 9.41467 18.4459 9.25751C18.841 9.16839 19.089 8.77587 18.9999 8.38078C18.9108 7.9857 18.5183 7.73767 18.1232 7.82679C17.3863 7.99301 16.6479 8.17832 15.9078 8.3828C15.2066 8.57657 14.7757 9.27019 14.8954 9.97786C14.8954 9.97781 14.8954 9.97791 14.8954 9.97786L15.5214 13.6794C15.6581 14.487 16.4552 15.0165 17.2574 14.8131C24.2394 13.0421 31.0397 13.0483 38.0189 14.8317C38.8208 15.0367 39.619 14.5086 39.757 13.7012L40.3897 10.0011C40.3897 10.0012 40.3897 10.0011 40.3897 10.0011C40.5108 9.29354 40.0809 8.59904 39.3802 8.40397C33.5116 6.77088 27.7589 6.34636 21.941 7.13646C21.5396 7.19096 21.2585 7.56049 21.313 7.96181C21.3675 8.36313 21.737 8.64429 22.1383 8.58979C27.7328 7.83004 33.268 8.23235 38.9357 9.80268L38.3214 13.3953ZM38.9441 9.75358C38.944 9.75364 38.9441 9.75352 38.9441 9.75358V9.75358Z" fill="#010101"/>
<path fill-rule="evenodd" clip-rule="evenodd" d="M38.9225 9.72865C39.0659 10.1074 39.4892 10.2982 39.868 10.1548L45.2423 8.12014C45.2422 8.12018 45.2424 8.1201 45.2423 8.12014C46.1205 7.78784 46.1203 6.5471 45.2445 6.21363L30.112 0.45377C30.112 0.453768 30.112 0.453772 30.112 0.45377C28.5265 -0.149793 26.7747 -0.151221 25.1881 0.449293L10.0455 6.18193C10.0454 6.18195 10.0456 6.1819 10.0455 6.18193C9.16774 6.51411 9.16725 7.75486 10.0436 8.08842C10.0436 8.08842 10.0436 8.08843 10.0436 8.08842L15.4147 10.1329C15.7932 10.277 16.2169 10.087 16.3609 9.70844C16.505 9.32993 16.315 8.90628 15.9365 8.7622L11.666 7.13667L25.7073 1.82099C25.7073 1.821 25.7073 1.82099 25.7073 1.82099C26.9586 1.34741 28.34 1.34856 29.5903 1.82449L43.6219 7.16536L39.3487 8.78317C38.9699 8.92657 38.7791 9.34987 38.9225 9.72865ZM44.7237 6.74824C44.7235 6.74828 44.7238 6.7482 44.7237 6.74824V6.74824Z" fill="#010101"/>
<path fill-rule="evenodd" clip-rule="evenodd" d="M47.6862 15.1318C47.7859 15.9979 47.1083 16.7571 46.2367 16.7564L44.0825 16.7544C43.2105 16.7537 42.5346 15.9929 42.6358 15.1273L43.09 11.2414C43.1759 10.5062 43.7992 9.95214 44.5393 9.95279L45.792 9.95397C46.5321 9.95465 47.1544 10.5098 47.239 11.2453L47.6862 15.1318ZM44.3156 13.3894L44.4337 12.3788L44.5458 11.4195L45.7828 11.4206L46.0505 13.7474L46.228 15.2897L45.3994 15.2889L44.0937 15.2877L44.3156 13.3894Z" fill="#010101"/>
<path fill-rule="evenodd" clip-rule="evenodd" d="M22.3194 40.842C25.6134 42.1626 29.3076 42.166 32.604 40.8513C32.9801 40.7013 33.1635 40.2747 33.0134 39.8985C32.8634 39.5223 32.4368 39.339 32.0606 39.489C29.114 40.6642 25.8098 40.6612 22.8651 39.4806C22.4892 39.3299 22.0623 39.5125 21.9116 39.8884C21.7609 40.2644 21.9434 40.6913 22.3194 40.842Z" fill="#010101"/>
<path fill-rule="evenodd" clip-rule="evenodd" d="M19.0579 33.1517C19.4626 33.1661 19.779 33.506 19.7646 33.9107C19.7567 34.131 19.8159 34.3388 19.9182 34.503C19.9203 34.5064 19.9225 34.5099 19.9246 34.5134L23.4961 40.2223C23.5115 40.247 24.3485 41.6513 25.1706 43.0306L26.822 45.8017C26.822 45.8017 26.8221 45.8019 26.1922 46.1773L26.822 45.8017L26.8235 45.8043C26.9837 46.0754 27.2279 46.1898 27.4574 46.1908C27.6869 46.1903 27.9314 46.0763 28.0921 45.8055L28.0935 45.8031L28.7042 46.1685C28.0935 45.8031 28.0935 45.8031 28.0935 45.8031L29.75 43.0348C30.5742 41.6575 31.4143 40.2538 31.4303 40.2284L35.0103 34.5287C35.0052 34.5371 35.0003 34.5456 34.9956 34.5543L34.9943 34.5566L35.6382 34.9077L35.0172 34.5177L35.0103 34.5287C35.0127 34.5246 35.0152 34.5205 35.0178 34.5164C35.1205 34.3523 35.18 34.1448 35.1725 33.9246C35.1588 33.5198 35.4758 33.1806 35.8806 33.1668C36.2853 33.1531 36.6246 33.4701 36.6383 33.8749C36.6555 34.3803 36.5222 34.8714 36.2689 35.2818C36.2734 35.2742 36.2778 35.2666 36.282 35.2588L36.2833 35.2565L35.6395 34.9054L36.2612 35.2943C36.2638 35.2902 36.2663 35.286 36.2689 35.2818C36.2657 35.2872 36.2625 35.2925 36.2592 35.2978L32.6722 41.0086C32.6722 41.0086 32.6575 41.0333 32.6294 41.0801C32.5541 41.2058 32.3835 41.4906 32.1517 41.878L29.3545 46.5522L29.3535 46.5538L28.7228 46.1797C29.3521 46.5562 29.3521 46.5561 29.3521 46.5561C28.9242 47.2756 28.1982 47.6571 27.4572 47.6574H27.455C26.7139 47.6556 25.9883 47.2728 25.5616 46.5517M18.667 35.2683C18.4136 34.8569 18.2808 34.3645 18.2989 33.8584C18.3133 33.4537 18.6531 33.1373 19.0579 33.1517M29.3521 46.5561L29.3527 46.5552L29.3535 46.5538M15.5935 34.0972C15.9425 33.8916 16.392 34.0079 16.5976 34.3568L19.0816 38.5735C19.2871 38.9224 19.1709 39.372 18.8219 39.5775C18.473 39.7831 18.0234 39.6669 17.8179 39.3179L15.3339 35.1012C15.1283 34.7523 15.2446 34.3028 15.5935 34.0972ZM39.343 34.1186C39.6916 34.3248 39.8071 34.7745 39.6009 35.1231L31.8435 48.2382C30.8379 49.9386 29.1506 50.8033 27.4533 50.7924C25.7559 50.8002 24.0704 49.9324 23.0678 48.2304L19.736 42.5744C19.5305 42.2254 19.6467 41.7759 19.9957 41.5703C20.3446 41.3648 20.7942 41.481 20.9997 41.83L24.3315 47.486C25.0669 48.7344 26.2672 49.3323 27.4499 49.3258L27.4594 49.3257C28.642 49.3344 29.8436 48.7387 30.5811 47.4916L38.3385 34.3764C38.5447 34.0278 38.9944 33.9124 39.343 34.1186Z" fill="#010101"/>
<path d="M25.5616 46.5517L19.0579 33.1517L18.667 35.2683L25.5616 46.5517Z" fill="#010101"/>
</g>
<defs>
<clipPath id="clip0_164_3777">
<rect width="55" height="55" fill="white" transform="matrix(1 0 0 -1 0 55)"/>
</clipPath>
</defs>
</svg>
