<svg width="25" height="25" viewBox="0 0 25 25" fill="none" xmlns="http://www.w3.org/2000/svg">
<path fill-rule="evenodd" clip-rule="evenodd" d="M19.8331 3.45757C19.095 3.79243 10.7745 7.67683 3.99731 10.8245C3.4605 11.0924 3.125 11.6282 3.125 12.164C3.125 12.6998 3.52761 13.1016 3.99731 13.1686C4.39992 13.2356 8.42598 13.8383 8.42598 13.8383L9.56669 20.5356L10.1706 17.5888L9.29829 13.1686L17.4846 7.14105L10.7745 14.508L13.123 17.1869C13.2572 17.3209 16.1426 20.6695 16.3439 20.8704C16.6794 21.2053 17.2162 21.875 17.4846 21.875C17.9543 21.875 18.424 21.2053 18.6253 20.2007C18.8266 19.2631 20.1686 12.7667 21.8462 4.12729C22.0475 3.18968 21.1752 2.78784 19.8331 3.45757Z" fill="currentColor"/>
</svg>
