<svg width="25" height="25" viewBox="0 0 25 25" fill="none" xmlns="http://www.w3.org/2000/svg">
<path d="M23.8369 18.0581C23.8091 17.9983 23.7833 17.9487 23.7592 17.909C23.3616 17.1929 22.6018 16.3139 21.4803 15.2719L21.4566 15.248L21.4447 15.2363L21.4327 15.2243H21.4207C20.9117 14.7391 20.5893 14.4128 20.4543 14.2458C20.2073 13.9276 20.152 13.6055 20.287 13.2791C20.3824 13.0326 20.7406 12.5118 21.3609 11.7162C21.6871 11.2946 21.9455 10.9567 22.1363 10.7021C23.5126 8.87247 24.1092 7.70332 23.9262 7.19418L23.8551 7.0752C23.8073 7.00357 23.684 6.93804 23.4854 6.87828C23.2863 6.81864 23.0319 6.80878 22.7216 6.84852L19.2853 6.87226C19.2296 6.85253 19.1501 6.85437 19.0466 6.87828C18.9432 6.90218 18.8914 6.91417 18.8914 6.91417L18.8316 6.94406L18.7841 6.97995C18.7444 7.00369 18.7006 7.04544 18.6528 7.10512C18.6053 7.16459 18.5656 7.23438 18.5338 7.31391C18.1597 8.2764 17.7343 9.17128 17.257 9.9985C16.9626 10.4918 16.6923 10.9192 16.4455 11.2812C16.1989 11.643 15.9921 11.9096 15.8252 12.0805C15.658 12.2516 15.5072 12.3886 15.3717 12.4921C15.2364 12.5957 15.1331 12.6394 15.0616 12.6234C14.9899 12.6074 14.9225 12.5915 14.8586 12.5756C14.7473 12.504 14.6577 12.4066 14.5903 12.2833C14.5225 12.16 14.4768 12.0049 14.453 11.8179C14.4292 11.6309 14.4152 11.47 14.4112 11.3347C14.4075 11.1996 14.4092 11.0085 14.4172 10.7619C14.4255 10.5152 14.4292 10.3483 14.4292 10.2608C14.4292 9.95846 14.4351 9.63036 14.4469 9.27639C14.459 8.92242 14.4687 8.64195 14.4769 8.43534C14.485 8.22851 14.4887 8.00969 14.4887 7.779C14.4887 7.54832 14.4747 7.3674 14.4469 7.23609C14.4195 7.10495 14.3774 6.97766 14.322 6.85425C14.2662 6.73096 14.1845 6.63559 14.0774 6.56789C13.97 6.50027 13.8365 6.44661 13.6777 6.40674C13.2561 6.31133 12.7192 6.25972 12.0668 6.2517C10.5873 6.23582 9.63668 6.33135 9.21509 6.53818C9.04805 6.62556 8.89689 6.74496 8.76174 6.89599C8.61852 7.07106 8.59854 7.16659 8.70193 7.18231C9.17928 7.25381 9.5172 7.42486 9.71609 7.6953L9.78776 7.8386C9.84351 7.94199 9.89917 8.12504 9.95488 8.38749C10.0105 8.64994 10.0464 8.94026 10.0622 9.25829C10.1019 9.83907 10.1019 10.3362 10.0622 10.7498C10.0224 11.1635 9.98476 11.4856 9.94886 11.7163C9.91296 11.947 9.8593 12.1339 9.78776 12.277C9.71609 12.4202 9.6684 12.5077 9.6445 12.5395C9.62063 12.5713 9.60074 12.5913 9.58494 12.5991C9.48155 12.6388 9.37402 12.6589 9.26273 12.6589C9.15127 12.6589 9.01612 12.6032 8.85706 12.4918C8.69805 12.3804 8.53301 12.2273 8.36196 12.0324C8.19091 11.8374 7.998 11.565 7.78315 11.215C7.56847 10.8651 7.34572 10.4515 7.11503 9.97422L6.92417 9.6281C6.80486 9.40544 6.64187 9.08122 6.43505 8.65574C6.2281 8.2301 6.04518 7.81837 5.88616 7.42064C5.82259 7.2536 5.7271 7.12643 5.59985 7.03892L5.54013 7.00302C5.50042 6.97126 5.43669 6.93754 5.34927 6.90159C5.26171 6.8657 5.17036 6.83995 5.07482 6.82411L1.80553 6.84785C1.47145 6.84785 1.24477 6.92354 1.12541 7.07469L1.07765 7.1462C1.05378 7.18603 1.04175 7.24963 1.04175 7.33719C1.04175 7.4247 1.06561 7.5321 1.11338 7.65927C1.59064 8.78095 2.10964 9.86272 2.6704 10.9047C3.23115 11.9468 3.71844 12.7862 4.13197 13.4221C4.54558 14.0586 4.96717 14.6592 5.39674 15.2238C5.82631 15.7886 6.11066 16.1506 6.24979 16.3096C6.38908 16.4689 6.49849 16.588 6.57801 16.6676L6.87636 16.9539C7.06727 17.1448 7.3476 17.3735 7.7175 17.6399C8.08748 17.9065 8.49707 18.169 8.9465 18.4277C9.396 18.686 9.91894 18.8968 10.5156 19.0598C11.1122 19.223 11.6928 19.2885 12.2576 19.2569H13.6298C13.9081 19.2329 14.1189 19.1454 14.2622 18.9943L14.3097 18.9345C14.3416 18.8871 14.3715 18.8133 14.3991 18.714C14.427 18.6146 14.4409 18.5051 14.4409 18.3859C14.4327 18.044 14.4588 17.7358 14.5183 17.4613C14.5778 17.187 14.6455 16.9802 14.7214 16.8409C14.7971 16.7017 14.8826 16.5843 14.9778 16.4891C15.0732 16.3937 15.1411 16.3359 15.181 16.316C15.2206 16.296 15.2522 16.2824 15.2761 16.2743C15.467 16.2107 15.6917 16.2723 15.9504 16.4594C16.209 16.6463 16.4515 16.8771 16.6784 17.1514C16.9051 17.426 17.1775 17.734 17.4956 18.076C17.8139 18.4181 18.0922 18.6724 18.3308 18.8397L18.5693 18.9829C18.7286 19.0784 18.9355 19.1659 19.1901 19.2455C19.4442 19.325 19.6669 19.3448 19.858 19.3051L22.9125 19.2575C23.2146 19.2575 23.4496 19.2074 23.6164 19.1082C23.7835 19.0088 23.8827 18.8992 23.9147 18.7801C23.9467 18.6608 23.9484 18.5255 23.9208 18.3742C23.8925 18.2233 23.8646 18.1178 23.8369 18.0581Z" fill="currentColor"/>
</svg>
